<svg width="48" height="48" viewBox="0 0 48 48" fill="none" xmlns="http://www.w3.org/2000/svg">
<g clip-path="url(#clip0_31_3173)">
<path d="M31.9999 32L23.9999 24M23.9999 24L15.9999 32M23.9999 24V42M40.7799 36.78C42.7306 35.7165 44.2716 34.0337 45.1597 31.9972C46.0477 29.9607 46.2323 27.6864 45.6843 25.5333C45.1363 23.3803 43.8869 21.471 42.1333 20.1069C40.3796 18.7427 38.2216 18.0014 35.9999 18H33.4799C32.8746 15.6585 31.7462 13.4846 30.1798 11.642C28.6134 9.79927 26.6496 8.33567 24.4361 7.36118C22.2226 6.3867 19.817 5.92669 17.4002 6.01573C14.9833 6.10478 12.6181 6.74057 10.4823 7.8753C8.34649 9.01003 6.49574 10.6142 5.06916 12.5671C3.64259 14.5201 2.6773 16.771 2.24588 19.1508C1.81446 21.5305 1.92813 23.977 2.57835 26.3065C3.22856 28.6359 4.3984 30.7877 5.99992 32.6" stroke="#B8C1C8" stroke-width="4" stroke-linecap="round" stroke-linejoin="round"/>
</g>
<defs>
<clipPath id="clip0_31_3173">
<rect width="48" height="48" fill="white"/>
</clipPath>
</defs>
</svg>
